<svg xmlns="http://www.w3.org/2000/svg" xmlns:svg="http://www.w3.org/2000/svg" id="svg5005" width="100" height="100" version="1.1"><metadata id="metadata5010"/><g id="layer1" transform="translate(0,-952.36218)"><path id="path3222-4-1" d="m 9.77424,1012.682 10e-6,-19.75988 -10e-6,-0.7401 0.84649,0 19.65352,0 0,20.49998 z" style="fill:#000;fill-opacity:1;stroke:#fff;stroke-width:0;stroke-linecap:round;stroke-linejoin:round;stroke-miterlimit:12.39999962;stroke-opacity:1"/><path style="fill:#000;fill-opacity:1;stroke:#fff;stroke-width:0;stroke-linecap:round;stroke-linejoin:round;stroke-miterlimit:12.39999962;stroke-opacity:1" id="path3224-0-3" d="m 39.77424,1012.682 1e-5,-19.75988 -1e-5,-0.7401 0.8465,0 19.65351,0 0,20.49998 z"/><path style="fill:#000;fill-opacity:1;stroke:#fff;stroke-width:0;stroke-linecap:round;stroke-linejoin:round;stroke-miterlimit:12.39999962;stroke-opacity:1" id="path3076-8" d="m 9.77424,1040.682 10e-6,-19.76 -10e-6,-0.74 0.84649,0 19.65352,0 0,20.5 z"/><path id="path3078-9" d="m 39.77424,1040.682 1e-5,-19.76 -1e-5,-0.74 0.8465,0 19.65351,0 0,20.5 z" style="fill:#000;fill-opacity:1;stroke:#fff;stroke-width:0;stroke-linecap:round;stroke-linejoin:round;stroke-miterlimit:12.39999962;stroke-opacity:1"/><path id="path3222-4-1-3" d="m 39.72575,984.54234 1e-5,-19.75995 -1e-5,-0.74005 0.84649,0 19.65352,0 0,20.5 z" style="fill:#000;fill-opacity:1;stroke:#fff;stroke-width:0;stroke-linecap:round;stroke-linejoin:round;stroke-miterlimit:12.39999962;stroke-opacity:1"/><path style="fill:#000;fill-opacity:1;stroke:#fff;stroke-width:0;stroke-linecap:round;stroke-linejoin:round;stroke-miterlimit:12.39999962;stroke-opacity:1" id="path3224-0-3-4" d="m 69.72575,984.54234 10e-6,-19.75995 -10e-6,-0.74005 0.8465,0 19.65351,0 0,20.5 z"/><path style="fill:#000;fill-opacity:1;stroke:#fff;stroke-width:0;stroke-linecap:round;stroke-linejoin:round;stroke-miterlimit:12.39999962;stroke-opacity:1" id="path3076-8-4" d="m 39.72575,1012.5423 1e-5,-19.75988 -1e-5,-0.7401 0.84649,0 19.65352,0 0,20.49998 z"/><path id="path3078-9-6" d="m 69.72575,1012.5423 10e-6,-19.75988 -10e-6,-0.7401 0.8465,0 19.65351,0 0,20.49998 z" style="fill:#000;fill-opacity:1;stroke:#fff;stroke-width:0;stroke-linecap:round;stroke-linejoin:round;stroke-miterlimit:12.39999962;stroke-opacity:1"/><path style="fill:#000;fill-opacity:1;stroke:#fff;stroke-width:0;stroke-linecap:round;stroke-linejoin:round;stroke-miterlimit:12.39999962;stroke-opacity:1" id="path4940" d="m 69.72575,1040.682 10e-6,-19.76 -10e-6,-0.74 0.8465,0 19.65351,0 0,20.5 z"/><path id="path3222-4-1-8" d="m 9.77424,984.54234 10e-6,-19.75995 -10e-6,-0.74005 0.84649,0 19.65352,0 0,20.5 z" style="fill:#000;fill-opacity:1;stroke:#fff;stroke-width:0;stroke-linecap:round;stroke-linejoin:round;stroke-miterlimit:12.39999962;stroke-opacity:1"/></g></svg>