<svg xmlns="http://www.w3.org/2000/svg" xmlns:xlink="http://www.w3.org/1999/xlink" id="Layer_1" x="0" y="0" enable-background="new 0 0 256 67.8" version="1.1" viewBox="0 0 256 67.8" xml:space="preserve"><rect width="34.8" height="12.1" x="48.4" y="55.4" fill="#FFF"/><text transform="matrix(1 0 0 1 51.3501 64.1844)"><tspan x="0" y="0" font-family="'BWText-Roman'" font-size="7.1">n</tspan><tspan x="4.3" y="0" font-family="'BWText-Roman'" font-size="7.1">am</tspan><tspan x="14.4" y="0" font-family="'BWText-Roman'" font-size="7.1">e</tspan></text><g><defs><rect id="SVGID_1_" width="256" height="67.8" x="0" y="0"/></defs><clipPath id="SVGID_2_"><use overflow="visible" xlink:href="#SVGID_1_"/></clipPath><rect width="34.8" height="12.1" x="48.4" y="55.4" fill="none" stroke="#000" stroke-width=".65" clip-path="url(#SVGID_2_)"/></g><rect width="9.8" height="9.2" x="71.9" y="56.8" fill="none" stroke="#000" stroke-width=".65"/><rect width="41.8" height="12.1" x="86.5" y="55.4" fill="#FFF"/><text transform="matrix(1 0 0 1 89.3833 64.1844)"><tspan x="0" y="0" font-family="'BWText-Roman'" font-size="7.1">&quot;PRINT</tspan><tspan x="23.3" y="0" font-family="'BWText-Roman'" font-size="7.1">&quot;</tspan></text><g><defs><rect id="SVGID_3_" width="256" height="67.8" x="0" y="0"/></defs><clipPath id="SVGID_4_"><use overflow="visible" xlink:href="#SVGID_3_"/></clipPath><rect width="41.8" height="12.1" x="86.5" y="55.4" fill="none" stroke="#000" stroke-width=".65" clip-path="url(#SVGID_4_)"/></g><rect width="9.8" height="9.2" x="117" y="56.8" fill="none" stroke="#000" stroke-width=".65"/><rect width="51.5" height="12.1" x="131.6" y="55.4" fill="#FFF"/><text transform="matrix(1 0 0 1 134.4834 64.1844)"><tspan x="0" y="0" font-family="'BWText-Roman'" font-size="7.1">argu</tspan><tspan x="14.6" y="0" font-family="'BWText-Roman'" font-size="7.1">m</tspan><tspan x="21" y="0" font-family="'BWText-Roman'" font-size="7.1">ent</tspan><tspan x="31.5" y="0" font-family="'BWText-Roman'" font-size="7.1">s</tspan></text><g><defs><rect id="SVGID_5_" width="256" height="67.8" x="0" y="0"/></defs><clipPath id="SVGID_6_"><use overflow="visible" xlink:href="#SVGID_5_"/></clipPath><rect width="51.5" height="12.1" x="131.6" y="55.4" fill="none" stroke="#000" stroke-width=".65" clip-path="url(#SVGID_6_)"/></g><rect width="9.8" height="9.2" x="171.8" y="56.8" fill="none" stroke="#000" stroke-width=".65"/><rect width="44.8" height="12.1" x=".3" y="55.4" fill="#FFF"/><text transform="matrix(1 0 0 1 3.25 64.1844)"><tspan x="0" y="0" font-family="'BWText-Roman'" font-size="7.1">fun</tspan><tspan x="10.9" y="0" font-family="'BWText-Roman'" font-size="7.1">c</tspan><tspan x="14.5" y="0" font-family="'BWText-Roman'" font-size="7.1">tio</tspan><tspan x="23.1" y="0" font-family="'BWText-Roman'" font-size="7.1">n</tspan></text><g><defs><rect id="SVGID_7_" width="256" height="67.8" x="0" y="0"/></defs><clipPath id="SVGID_8_"><use overflow="visible" xlink:href="#SVGID_7_"/></clipPath><rect width="44.8" height="12.1" x=".3" y="55.4" fill="none" stroke="#000" stroke-width=".65" clip-path="url(#SVGID_8_)"/></g><rect width="69.3" height="12.1" x="186.3" y="55.4" fill="#FFF"/><text transform="matrix(1 0 0 1 189.2334 64.1844)"><tspan x="0" y="0" font-family="'BWText-Roman'" font-size="7.1">&quot;HELLO</tspan><tspan x="25.7" y="0" font-family="'BWText-Roman'" font-size="7.1"> </tspan><tspan x="27.5" y="0" font-family="'BWText-Roman'" font-size="7.1">NE</tspan><tspan x="36.9" y="0" font-family="'BWText-Roman'" font-size="7.1">R</tspan><tspan x="41.6" y="0" font-family="'BWText-Roman'" font-size="7.1">DS</tspan><tspan x="50.4" y="0" font-family="'BWText-Roman'" font-size="7.1">&quot;</tspan></text><g><defs><rect id="SVGID_9_" width="256" height="67.8" x="0" y="0"/></defs><clipPath id="SVGID_10_"><use overflow="visible" xlink:href="#SVGID_9_"/></clipPath><rect width="69.3" height="12.1" x="186.3" y="55.4" fill="none" stroke="#000" stroke-width=".65" clip-path="url(#SVGID_10_)"/></g><rect width="9.8" height="9.2" x="244.4" y="56.8" fill="none" stroke="#000" stroke-width=".65"/><g><defs><rect id="SVGID_11_" width="256" height="67.8" x="0" y="0"/></defs><clipPath id="SVGID_12_"><use overflow="visible" xlink:href="#SVGID_11_"/></clipPath><path fill="none" stroke="#000" stroke-width=".65" d="M77.1,61c0-9.8-8.3-17.8-18.6-17.8 C51,43.2,44.8,47,41.8,53" clip-path="url(#SVGID_12_)"/><polyline fill="none" stroke="#000" stroke-width=".65" points="46.5 51.3 41.8 53 40.4 48.3" clip-path="url(#SVGID_12_)"/><path fill="none" stroke="#000" stroke-width=".65" d="M175.9,61c0-33.5-30.2-60.7-67.4-60.7 c-32.7,0-59.8,20.5-66,48.3" clip-path="url(#SVGID_12_)"/><polyline fill="none" stroke="#000" stroke-width=".65" points="46.6 45.8 42.5 48.6 40 44.4" clip-path="url(#SVGID_12_)"/><path fill="none" stroke="#000" stroke-width=".65" d="M121.9,61c0-11.4-9.8-20.7-21.9-20.7 c-9.2,0-16.9,4.9-20.1,12.5" clip-path="url(#SVGID_12_)"/><polyline fill="none" stroke="#000" stroke-width=".65" points="84.4 50.8 79.9 52.8 78.2 48.2" clip-path="url(#SVGID_12_)"/><path fill="none" stroke="#000" stroke-width=".65" d="M248.4,61c0-18.1-16-32.8-35.6-32.8 c-16.9,0-30.9,10.3-34.6,24.7" clip-path="url(#SVGID_12_)"/><polyline fill="none" stroke="#000" stroke-width=".65" points="182.4 50.3 178.2 53 175.8 48.7" clip-path="url(#SVGID_12_)"/></g><path fill="none" stroke="#000" stroke-width=".65" d="M42.4,49.1"/></svg>