<svg xmlns="http://www.w3.org/2000/svg" xmlns:svg="http://www.w3.org/2000/svg" id="svg2" width="86.667" height="90.667" version="1.1" viewBox="0 0 86.667 90.667" xml:space="preserve"><metadata id="metadata8"/><g id="g10" transform="matrix(1.3333333,0,0,-1.3333333,0,90.666667)"><g id="g12" transform="scale(0.1)"><path id="path14" d="M 0,0 H 4100 V 2910 H 0 Z" style="fill:#fff;fill-opacity:1;fill-rule:nonzero;stroke:none"/><path id="path16" d="m 441.43,280.715 h 96.4258 v 64.2852 H 441.43 Z" style="fill:#fff;fill-opacity:1;fill-rule:nonzero;stroke:none"/><path id="path18" d="m 441.43,280.715 h 96.4258 v 64.2852 H 441.43 Z" style="fill:none;stroke:#000;stroke-width:20;stroke-linecap:round;stroke-linejoin:round;stroke-miterlimit:10;stroke-dasharray:none;stroke-opacity:1"/><path id="path20" d="m 280.715,505.715 h 96.4297 v 64.2852 H 280.715 Z" style="fill:#fff;fill-opacity:1;fill-rule:nonzero;stroke:none"/><path id="path22" d="m 280.715,505.715 h 96.4297 v 64.2852 H 280.715 Z" style="fill:none;stroke:#000;stroke-width:20;stroke-linecap:round;stroke-linejoin:round;stroke-miterlimit:10;stroke-dasharray:none;stroke-opacity:1"/><path id="path24" d="m 216.43,377.145 h 96.4258 v 64.2852 H 216.43 Z" style="fill:#fff;fill-opacity:1;fill-rule:nonzero;stroke:none"/><path id="path26" d="m 216.43,377.145 h 96.4258 v 64.2852 H 216.43 Z" style="fill:none;stroke:#000;stroke-width:20;stroke-linecap:round;stroke-linejoin:round;stroke-miterlimit:10;stroke-dasharray:none;stroke-opacity:1"/><path id="path28" d="m 377.145,409.285 h 96.4258 v 64.2852 H 377.145 Z" style="fill:#fff;fill-opacity:1;fill-rule:nonzero;stroke:none"/><path id="path30" d="m 377.145,409.285 h 96.4258 v 64.2852 H 377.145 Z" style="fill:none;stroke:#000;stroke-width:20;stroke-linecap:round;stroke-linejoin:round;stroke-miterlimit:10;stroke-dasharray:none;stroke-opacity:1"/><path id="path32" d="M 307.855,495.715 285.715,451.43" style="fill:none;stroke:#000;stroke-width:20;stroke-linecap:round;stroke-linejoin:round;stroke-miterlimit:10;stroke-dasharray:none;stroke-opacity:1"/><path id="path34" d="M 371.07,495.715 383.215,483.57" style="fill:none;stroke:#000;stroke-width:20;stroke-linecap:round;stroke-linejoin:round;stroke-miterlimit:10;stroke-dasharray:none;stroke-opacity:1"/><path id="path36" d="M 446.43,399.285 468.57,355" style="fill:none;stroke:#000;stroke-width:20;stroke-linecap:round;stroke-linejoin:round;stroke-miterlimit:10;stroke-dasharray:none;stroke-opacity:1"/><path id="path38" d="m 280.715,184.285 h 96.4297 v 64.2852 H 280.715 Z" style="fill:#fff;fill-opacity:1;fill-rule:nonzero;stroke:none"/><path id="path40" d="m 280.715,184.285 h 96.4297 v 64.2852 H 280.715 Z" style="fill:none;stroke:#000;stroke-width:20;stroke-linecap:round;stroke-linejoin:round;stroke-miterlimit:10;stroke-dasharray:none;stroke-opacity:1"/><path id="path42" d="M 431.766,278.133 386.805,251.156" style="fill:none;stroke:#000;stroke-width:20;stroke-linecap:round;stroke-linejoin:round;stroke-miterlimit:10;stroke-dasharray:none;stroke-opacity:1"/><path id="path44" d="M 409.285,409.285 346.488,258.57" style="fill:none;stroke:#000;stroke-width:20;stroke-linecap:round;stroke-linejoin:round;stroke-miterlimit:10;stroke-dasharray:none;stroke-opacity:1"/><path id="path46" d="m 152.145,248.57 h 96.4258 v 64.2852 H 152.145 Z" style="fill:#fff;fill-opacity:1;fill-rule:nonzero;stroke:none"/><path id="path48" d="m 152.145,248.57 h 96.4258 v 64.2852 H 152.145 Z" style="fill:none;stroke:#000;stroke-width:20;stroke-linecap:round;stroke-linejoin:round;stroke-miterlimit:10;stroke-dasharray:none;stroke-opacity:1"/><path id="path50" d="m 120,120 h 96.4297 v 64.2852 H 120 Z" style="fill:#fff;fill-opacity:1;fill-rule:nonzero;stroke:none"/><path id="path52" d="m 120,120 h 96.4297 v 64.2852 H 120 Z" style="fill:none;stroke:#000;stroke-width:20;stroke-linecap:round;stroke-linejoin:round;stroke-miterlimit:10;stroke-dasharray:none;stroke-opacity:1"/><path id="path54" d="m 243.57,367.145 -22.14,-44.29" style="fill:none;stroke:#000;stroke-width:20;stroke-linecap:round;stroke-linejoin:round;stroke-miterlimit:10;stroke-dasharray:none;stroke-opacity:1"/><path id="path56" d="M 189.82,238.57 178.75,194.285" style="fill:none;stroke:#000;stroke-width:20;stroke-linecap:round;stroke-linejoin:round;stroke-miterlimit:10;stroke-dasharray:none;stroke-opacity:1"/></g></g></svg>