<svg xmlns="http://www.w3.org/2000/svg" xmlns:xlink="http://www.w3.org/1999/xlink" id="Layer_1" x="0" y="0" enable-background="new 0 0 138.5 110.9" version="1.1" viewBox="0 0 138.5 110.9" xml:space="preserve"><rect width="12.1" height="44.8" x="39.2" y="65.7" fill="#FFF"/><g><defs><rect id="SVGID_1_" width="138.5" height="110.9"/></defs><clipPath id="SVGID_2_"><use overflow="visible" xlink:href="#SVGID_1_"/></clipPath><g clip-path="url(#SVGID_2_)"><text transform="matrix(-6.123234e-17 -1 1 -6.123234e-17 48.0332 107.6436)"><tspan x="0" y="0" font-family="'BWText-Roman'" font-size="7.1">fun</tspan><tspan x="10.9" y="0" font-family="'BWText-Roman'" font-size="7.1">c</tspan><tspan x="14.5" y="0" font-family="'BWText-Roman'" font-size="7.1">tio</tspan><tspan x="23.1" y="0" font-family="'BWText-Roman'" font-size="7.1">n</tspan></text></g><rect width="12.1" height="44.8" x="39.2" y="65.7" fill="none" stroke="#000" stroke-width=".65" clip-path="url(#SVGID_2_)"/></g><rect width="12.1" height="51.5" x="58.4" y="28.3" fill="#FFF" transform="matrix(-0.7547 -0.6561 0.6561 -0.7547 77.5815 137.134)"/><text transform="matrix(0.6561 -0.7547 0.7547 0.6561 51.5447 73.1092)"><tspan x="0" y="0" font-family="'BWText-Roman'" font-size="7.1">ar</tspan><tspan x="6.7" y="0" font-family="'BWText-Roman'" font-size="7.1">g</tspan><tspan x="10.3" y="0" font-family="'BWText-Roman'" font-size="7.1">u</tspan><tspan x="14.6" y="0" font-family="'BWText-Roman'" font-size="7.1">m</tspan><tspan x="21" y="0" font-family="'BWText-Roman'" font-size="7.1">ent</tspan><tspan x="31.5" y="0" font-family="'BWText-Roman'" font-size="7.1">s</tspan></text><rect width="12.1" height="51.5" x="58.4" y="28.3" fill="none" stroke="#000" stroke-width=".65" transform="matrix(-0.7547 -0.6561 0.6561 -0.7547 77.5815 137.134)"/><g><defs><rect id="SVGID_3_" width="138.5" height="110.9"/></defs><clipPath id="SVGID_4_"><use overflow="visible" xlink:href="#SVGID_3_"/></clipPath><path fill="none" stroke="#000" stroke-width=".65" d="M70.5,40.1c2.3,2,4.6,4,6.9,6 c2.1-2.5,4.3-4.9,6.4-7.4c-2.3-2-4.6-4-6.9-6C74.7,35.2,72.6,37.7,70.5,40.1z" clip-path="url(#SVGID_4_)"/></g><path fill="none" stroke="#000" stroke-width=".65" d="M33,68.5"/><rect width="12.1" height="34.8" x="29.2" y="40.1" fill="#FFF" transform="matrix(-0.9063 0.4226 -0.4226 -0.9063 91.5019 94.6054)"/><text transform="matrix(-0.4226 -0.9063 0.9063 -0.4226 43.8911 69.3837)"><tspan x="0" y="0" font-family="'BWText-Roman'" font-size="7.1">n</tspan><tspan x="4.3" y="0" font-family="'BWText-Roman'" font-size="7.1">am</tspan><tspan x="14.4" y="0" font-family="'BWText-Roman'" font-size="7.1">e</tspan></text><rect width="12.1" height="34.8" x="29.2" y="40.1" fill="none" stroke="#000" stroke-width=".65" transform="matrix(-0.9063 0.4226 -0.4226 -0.9063 91.5019 94.6054)"/><g><defs><rect id="SVGID_5_" width="138.5" height="110.9"/></defs><clipPath id="SVGID_6_"><use overflow="visible" xlink:href="#SVGID_5_"/></clipPath><path fill="none" stroke="#000" stroke-width=".65" d="M28.5,53.8c2.8-1.3,5.5-2.6,8.3-3.9 l-4.1-8.8c-2.8,1.3-5.5,2.6-8.3,3.9L28.5,53.8z" clip-path="url(#SVGID_6_)"/></g><rect width="41.9" height="12.1" x="-.9" y="25.2" fill="#FFF" transform="matrix(-0.7431 -0.6691 0.6691 -0.7431 14.0585 67.8742)"/><text transform="matrix(-0.7431 -0.6691 0.6691 -0.7431 35.288 41.2227)"><tspan x="0" y="0" font-family="'BWText-Roman'" font-size="7.1">&quot;PR</tspan><tspan x="11.4" y="0" font-family="'BWText-Roman'" font-size="7.1">I</tspan><tspan x="13.8" y="0" font-family="'BWText-Roman'" font-size="7.1">NT</tspan><tspan x="23.3" y="0" font-family="'BWText-Roman'" font-size="7.1">&quot;</tspan></text><g><defs><rect id="SVGID_7_" width="138.5" height="110.9"/></defs><clipPath id="SVGID_8_"><use overflow="visible" xlink:href="#SVGID_7_"/></clipPath><rect width="12.1" height="41.8" x="14" y="10.3" fill="none" stroke="#000" stroke-width=".65" clip-path="url(#SVGID_8_)" transform="matrix(-0.6691 0.7432 -0.7432 -0.6691 56.6926 37.2353)"/><path fill="none" stroke="#000" stroke-width=".65" d="M9.8,28.2c2-2.3,4.1-4.5,6.1-6.8l-7.2-6.5 c-2,2.3-4.1,4.5-6.1,6.8C5,23.8,7.4,26,9.8,28.2z" clip-path="url(#SVGID_8_)"/></g><rect width="12.1" height="69.3" x="98.2" y="-13.6" fill="#FFF" transform="matrix(-0.4384 -0.8988 0.8988 -0.4384 131.0234 124.0145)"/><text transform="matrix(0.8988 -0.4384 0.4384 0.8988 76.9353 37.4818)"><tspan x="0" y="0" font-family="'BWText-Roman'" font-size="7.1">&quot;HEL</tspan><tspan x="16.4" y="0" font-family="'BWText-Roman'" font-size="7.1">L</tspan><tspan x="20.6" y="0" font-family="'BWText-Roman'" font-size="7.1">O</tspan><tspan x="25.7" y="0" font-family="'BWText-Roman'" font-size="7.1"> </tspan><tspan x="27.5" y="0" font-family="'BWText-Roman'" font-size="7.1">NERDS</tspan><tspan x="50.4" y="0" font-family="'BWText-Roman'" font-size="7.1">&quot;</tspan></text><rect width="12.1" height="69.3" x="98.2" y="-13.6" fill="none" stroke="#000" stroke-width=".65" transform="matrix(-0.4384 -0.8988 0.8988 -0.4384 131.0239 124.0138)"/><path fill="none" stroke="#000" stroke-width=".65" d="M123.3,6.7c1.3,2.7,2.7,5.5,4,8.2c2.9-1.4,5.8-2.8,8.8-4.3	c-1.3-2.7-2.7-5.5-4-8.2C129.1,3.8,126.2,5.3,123.3,6.7z"/></svg>