<svg xmlns="http://www.w3.org/2000/svg" xmlns:svg="http://www.w3.org/2000/svg" id="svg2" width="89.333" height="65.333" version="1.1" viewBox="0 0 89.333 65.333" xml:space="preserve"><metadata id="metadata8"/><g id="g10" transform="matrix(1.3333333,0,0,-1.3333333,0,65.333333)"><g id="g12" transform="scale(0.1)"><path id="path14" d="M 0,0 H 5440 V 3350 H 0 Z" style="fill:#fff;fill-opacity:1;fill-rule:nonzero;stroke:none"/><path id="path16" d="m 110,110 h 56.25 V 380 H 110 Z" style="fill:#fff;fill-opacity:1;fill-rule:nonzero;stroke:none"/><path id="path18" d="m 110,110 h 56.25 V 380 H 110 Z" style="fill:none;stroke:#000;stroke-width:20;stroke-linecap:round;stroke-linejoin:round;stroke-miterlimit:10;stroke-dasharray:none;stroke-opacity:1"/><path id="path20" d="M 166.25,110 H 222.5 V 245 H 166.25 Z" style="fill:#fff;fill-opacity:1;fill-rule:nonzero;stroke:none"/><path id="path22" d="M 166.25,110 H 222.5 V 245 H 166.25 Z" style="fill:none;stroke:#000;stroke-width:20;stroke-linecap:round;stroke-linejoin:round;stroke-miterlimit:10;stroke-dasharray:none;stroke-opacity:1"/><path id="path24" d="m 222.5,110 h 56.25 V 335 H 222.5 Z" style="fill:#fff;fill-opacity:1;fill-rule:nonzero;stroke:none"/><path id="path26" d="m 222.5,110 h 56.25 V 335 H 222.5 Z" style="fill:none;stroke:#000;stroke-width:20;stroke-linecap:round;stroke-linejoin:round;stroke-miterlimit:10;stroke-dasharray:none;stroke-opacity:1"/><path id="path28" d="M 278.75,110 H 335 v 270 h -56.25 z" style="fill:#fff;fill-opacity:1;fill-rule:nonzero;stroke:none"/><path id="path30" d="M 278.75,110 H 335 v 270 h -56.25 z" style="fill:none;stroke:#000;stroke-width:20;stroke-linecap:round;stroke-linejoin:round;stroke-miterlimit:10;stroke-dasharray:none;stroke-opacity:1"/><path id="path32" d="m 335,110 h 56.25 V 245 H 335 Z" style="fill:#fff;fill-opacity:1;fill-rule:nonzero;stroke:none"/><path id="path34" d="m 335,110 h 56.25 V 245 H 335 Z" style="fill:none;stroke:#000;stroke-width:20;stroke-linecap:round;stroke-linejoin:round;stroke-miterlimit:10;stroke-dasharray:none;stroke-opacity:1"/><path id="path36" d="m 391.25,110 h 56.25 v 67.5 h -56.25 z" style="fill:#fff;fill-opacity:1;fill-rule:nonzero;stroke:none"/><path id="path38" d="m 391.25,110 h 56.25 v 67.5 h -56.25 z" style="fill:none;stroke:#000;stroke-width:20;stroke-linecap:round;stroke-linejoin:round;stroke-miterlimit:10;stroke-dasharray:none;stroke-opacity:1"/><path id="path40" d="m 447.5,110 h 56.25 V 222.5 H 447.5 Z" style="fill:#fff;fill-opacity:1;fill-rule:nonzero;stroke:none"/><path id="path42" d="m 447.5,110 h 56.25 V 222.5 H 447.5 Z" style="fill:none;stroke:#000;stroke-width:20;stroke-linecap:round;stroke-linejoin:round;stroke-miterlimit:10;stroke-dasharray:none;stroke-opacity:1"/><path id="path44" d="M 503.75,110 H 560 v 135 h -56.25 z" style="fill:#fff;fill-opacity:1;fill-rule:nonzero;stroke:none"/><path id="path46" d="M 503.75,110 H 560 v 135 h -56.25 z" style="fill:none;stroke:#000;stroke-width:20;stroke-linecap:round;stroke-linejoin:round;stroke-miterlimit:10;stroke-dasharray:none;stroke-opacity:1"/></g></g></svg>