<svg xmlns="http://www.w3.org/2000/svg" xmlns:svg="http://www.w3.org/2000/svg" id="svg2" width="300" height="100" version="1.1"><metadata id="metadata7"/><g id="layer1" transform="translate(0,-952.36218)"><path style="fill:#fff;fill-opacity:1;stroke:#000;stroke-width:2;stroke-linecap:butt;stroke-linejoin:round;stroke-miterlimit:4;stroke-opacity:1;stroke-dasharray:none" id="path2820" d="m 100,962.36218 c 0,0 40.12951,0 60,0 20,0 40,19.4856 40,40.00002 0,20 -20,40 -40,40 -20.0296,0 -60,0 -60,0 l 0,-80.00002 z"/><path style="fill:none;stroke:#000;stroke-width:1px;stroke-linecap:round;stroke-linejoin:miter;stroke-opacity:1" id="path3594" d="m 40,982.36218 60,0"/><path style="fill:none;stroke:#000;stroke-width:1px;stroke-linecap:round;stroke-linejoin:miter;stroke-opacity:1" id="path3594-1" d="m 40,1022.3622 60,0"/><path style="fill:none;stroke:#000;stroke-width:1px;stroke-linecap:round;stroke-linejoin:miter;stroke-opacity:1" id="path3594-9" d="m 220,1002.3622 40,0"/><path style="fill:#fff;fill-opacity:1;stroke:#000;stroke-width:1;stroke-linecap:round;stroke-linejoin:round;stroke-miterlimit:4;stroke-opacity:1;stroke-dasharray:none;stroke-dashoffset:0" id="path3636" d="m 210,50 a 10,10 0 1 1 -20,0 10,10 0 1 1 20,0 z" transform="translate(10,952.36218)"/><text id="text3764-63-0-7-3-9-0-7-1-14-3-4" x="19.352" y="992.362" xml:space="preserve" style="font-size:28px;font-style:normal;font-variant:normal;font-weight:400;font-stretch:normal;text-align:center;line-height:125%;writing-mode:lr-tb;text-anchor:middle;opacity:.92159992;fill:#000;fill-opacity:1;stroke:none;display:inline;font-family:Arial;-inkscape-font-specification:Arial"><tspan id="tspan7660" x="19.352" y="992.362">a</tspan></text><text id="text3764-63-0-7-3-9-0-7-1-14-3-4-4" x="279.352" y="1012.362" xml:space="preserve" style="font-size:28px;font-style:normal;font-variant:normal;font-weight:400;font-stretch:normal;text-align:center;line-height:125%;writing-mode:lr-tb;text-anchor:middle;opacity:.92159992;fill:#000;fill-opacity:1;stroke:none;display:inline;font-family:Arial;-inkscape-font-specification:Arial"><tspan id="tspan7664" x="279.352" y="1012.362">c</tspan></text><text id="text3764-63-0-7-3-9-0-7-1-14-3-4-2" x="19.352" y="1032.362" xml:space="preserve" style="font-size:28px;font-style:normal;font-variant:normal;font-weight:400;font-stretch:normal;text-align:center;line-height:125%;writing-mode:lr-tb;text-anchor:middle;opacity:.92159992;fill:#000;fill-opacity:1;stroke:none;display:inline;font-family:Arial;-inkscape-font-specification:Arial"><tspan id="tspan7662" x="19.352" y="1032.362">b</tspan></text></g></svg>