<svg xmlns="http://www.w3.org/2000/svg" xmlns:svg="http://www.w3.org/2000/svg" id="svg2" width="300" height="100" version="1.1"><metadata id="metadata7"/><g id="layer1" transform="translate(0,-952.36218)"><path style="fill:none;stroke:#000;stroke-width:1px;stroke-linecap:round;stroke-linejoin:miter;stroke-opacity:1" id="path3594" d="m 40,982.36218 70,0"/><path style="fill:none;stroke:#000;stroke-width:1px;stroke-linecap:round;stroke-linejoin:miter;stroke-opacity:1" id="path3594-1" d="m 40,1022.3622 70,0"/><path style="fill:none;stroke:#000;stroke-width:1px;stroke-linecap:round;stroke-linejoin:miter;stroke-opacity:1" id="path3594-9" d="m 200,1002.3622 60,0"/><text id="text3764-63-0-7-3-9-0-7-1-14-3-4" x="19.352" y="992.362" xml:space="preserve" style="font-size:28px;font-style:normal;font-variant:normal;font-weight:400;font-stretch:normal;text-align:center;line-height:125%;writing-mode:lr-tb;text-anchor:middle;opacity:.92159992;fill:#000;fill-opacity:1;stroke:none;display:inline;font-family:Arial;-inkscape-font-specification:Arial"><tspan id="tspan7678" x="19.352" y="992.362">a</tspan></text><text id="text3764-63-0-7-3-9-0-7-1-14-3-4-4" x="279.352" y="1012.362" xml:space="preserve" style="font-size:28px;font-style:normal;font-variant:normal;font-weight:400;font-stretch:normal;text-align:center;line-height:125%;writing-mode:lr-tb;text-anchor:middle;opacity:.92159992;fill:#000;fill-opacity:1;stroke:none;display:inline;font-family:Arial;-inkscape-font-specification:Arial"><tspan id="tspan7682" x="279.352" y="1012.362">c</tspan></text><text id="text3764-63-0-7-3-9-0-7-1-14-3-4-2" x="19.352" y="1032.362" xml:space="preserve" style="font-size:28px;font-style:normal;font-variant:normal;font-weight:400;font-stretch:normal;text-align:center;line-height:125%;writing-mode:lr-tb;text-anchor:middle;opacity:.92159992;fill:#000;fill-opacity:1;stroke:none;display:inline;font-family:Arial;-inkscape-font-specification:Arial"><tspan id="tspan7680" x="19.352" y="1032.362">b</tspan></text><path style="fill:#fff;fill-opacity:1;stroke:#000;stroke-width:2;stroke-linecap:butt;stroke-linejoin:round;stroke-miterlimit:4;stroke-opacity:1;stroke-dasharray:none" id="path4391" d="m 100,962.36218 c 0,0 10,20 10,40.00002 0,19.7683 -10,40 -10,40 0,0 -18.284101,0 30,0 50,0 70,-40 70,-40 0,0 -20,-40.00002 -70,-40.00002 -50.151253,0 -30,0 -30,0 z"/><path style="fill:none;stroke:#000;stroke-width:2;stroke-linecap:round;stroke-linejoin:miter;stroke-miterlimit:4;stroke-opacity:1;stroke-dasharray:none" id="path4393" d="m 90,962.36218 c 0,0 10,20 10,40.00002 0,19.7935 -10,40 -10,40"/></g></svg>